<mxfile host="app.diagrams.net" modified="2021-06-11T04:52:59.446Z" agent="5.0 (Macintosh; Intel Mac OS X 11_0_0) AppleWebKit/537.36 (KHTML, like Gecko) Chrome/86.0.4240.272 Whale/2.9.118.16 Safari/537.36" etag="EQxvoLvpQNgRQo-RN8Eh" version="14.7.3" type="github">
  <diagram id="xOOTiDrCO2QlrQEkyeFd" name="Page-1">
    <mxGraphModel dx="1129" dy="1125" grid="1" gridSize="10" guides="1" tooltips="1" connect="1" arrows="1" fold="1" page="1" pageScale="1" pageWidth="827" pageHeight="1169" math="0" shadow="0">
      <root>
        <mxCell id="0" />
        <mxCell id="1" parent="0" />
        <mxCell id="SLRjv61vng9qwee1FFyH-6" value="" style="group" vertex="1" connectable="0" parent="1">
          <mxGeometry x="50" y="250" width="266" height="170" as="geometry" />
        </mxCell>
        <mxCell id="SLRjv61vng9qwee1FFyH-1" value="«interface»&lt;br&gt;&lt;b&gt;CDriveStorage&lt;/b&gt;" style="html=1;" vertex="1" parent="SLRjv61vng9qwee1FFyH-6">
          <mxGeometry x="76" width="110" height="50" as="geometry" />
        </mxCell>
        <mxCell id="SLRjv61vng9qwee1FFyH-2" value="COwfsStorage" style="html=1;" vertex="1" parent="SLRjv61vng9qwee1FFyH-6">
          <mxGeometry y="120" width="110" height="50" as="geometry" />
        </mxCell>
        <mxCell id="SLRjv61vng9qwee1FFyH-3" value="CNubesStorage" style="html=1;" vertex="1" parent="SLRjv61vng9qwee1FFyH-6">
          <mxGeometry x="156" y="120" width="110" height="50" as="geometry" />
        </mxCell>
        <mxCell id="SLRjv61vng9qwee1FFyH-4" value="" style="endArrow=block;dashed=1;endFill=0;endSize=12;html=1;exitX=0.5;exitY=0;exitDx=0;exitDy=0;entryX=0.25;entryY=1;entryDx=0;entryDy=0;" edge="1" parent="SLRjv61vng9qwee1FFyH-6" source="SLRjv61vng9qwee1FFyH-2" target="SLRjv61vng9qwee1FFyH-1">
          <mxGeometry width="160" relative="1" as="geometry">
            <mxPoint x="46" y="30" as="sourcePoint" />
            <mxPoint x="206" y="30" as="targetPoint" />
          </mxGeometry>
        </mxCell>
        <mxCell id="SLRjv61vng9qwee1FFyH-5" value="" style="endArrow=block;dashed=1;endFill=0;endSize=12;html=1;exitX=0.5;exitY=0;exitDx=0;exitDy=0;entryX=0.75;entryY=1;entryDx=0;entryDy=0;" edge="1" parent="SLRjv61vng9qwee1FFyH-6" source="SLRjv61vng9qwee1FFyH-3" target="SLRjv61vng9qwee1FFyH-1">
          <mxGeometry width="160" relative="1" as="geometry">
            <mxPoint x="65" y="130" as="sourcePoint" />
            <mxPoint x="113.5" y="60" as="targetPoint" />
          </mxGeometry>
        </mxCell>
        <mxCell id="SLRjv61vng9qwee1FFyH-14" value="" style="group" vertex="1" connectable="0" parent="1">
          <mxGeometry x="750" y="250" width="304" height="170" as="geometry" />
        </mxCell>
        <mxCell id="SLRjv61vng9qwee1FFyH-15" value="«interface»&lt;br&gt;&lt;b&gt;CStorageFile&lt;/b&gt;" style="html=1;" vertex="1" parent="SLRjv61vng9qwee1FFyH-14">
          <mxGeometry x="90" width="110" height="50" as="geometry" />
        </mxCell>
        <mxCell id="SLRjv61vng9qwee1FFyH-16" value="COwfsStorageFile" style="html=1;" vertex="1" parent="SLRjv61vng9qwee1FFyH-14">
          <mxGeometry y="120" width="110" height="50" as="geometry" />
        </mxCell>
        <mxCell id="SLRjv61vng9qwee1FFyH-17" value="CNubesStorageFile" style="html=1;" vertex="1" parent="SLRjv61vng9qwee1FFyH-14">
          <mxGeometry x="170" y="120" width="134" height="50" as="geometry" />
        </mxCell>
        <mxCell id="SLRjv61vng9qwee1FFyH-18" value="" style="endArrow=block;dashed=1;endFill=0;endSize=12;html=1;exitX=0.5;exitY=0;exitDx=0;exitDy=0;entryX=0.25;entryY=1;entryDx=0;entryDy=0;" edge="1" parent="SLRjv61vng9qwee1FFyH-14" source="SLRjv61vng9qwee1FFyH-16" target="SLRjv61vng9qwee1FFyH-15">
          <mxGeometry width="160" as="geometry">
            <mxPoint x="46" y="30" as="sourcePoint" />
            <mxPoint x="206" y="30" as="targetPoint" />
          </mxGeometry>
        </mxCell>
        <mxCell id="SLRjv61vng9qwee1FFyH-19" value="" style="endArrow=block;dashed=1;endFill=0;endSize=12;html=1;exitX=0.5;exitY=0;exitDx=0;exitDy=0;entryX=0.75;entryY=1;entryDx=0;entryDy=0;" edge="1" parent="SLRjv61vng9qwee1FFyH-14" source="SLRjv61vng9qwee1FFyH-17" target="SLRjv61vng9qwee1FFyH-15">
          <mxGeometry width="160" as="geometry">
            <mxPoint x="65" y="130" as="sourcePoint" />
            <mxPoint x="113.5" y="60" as="targetPoint" />
          </mxGeometry>
        </mxCell>
        <mxCell id="SLRjv61vng9qwee1FFyH-20" value="" style="group" vertex="1" connectable="0" parent="1">
          <mxGeometry x="400" y="250" width="314" height="170" as="geometry" />
        </mxCell>
        <mxCell id="SLRjv61vng9qwee1FFyH-8" value="«interface»&lt;br&gt;&lt;b&gt;CStorageUserHandle&lt;/b&gt;" style="html=1;" vertex="1" parent="SLRjv61vng9qwee1FFyH-20">
          <mxGeometry x="80" width="134" height="50" as="geometry" />
        </mxCell>
        <mxCell id="SLRjv61vng9qwee1FFyH-9" value="COwFsStorageUserHandle" style="html=1;" vertex="1" parent="SLRjv61vng9qwee1FFyH-20">
          <mxGeometry y="120" width="160" height="50" as="geometry" />
        </mxCell>
        <mxCell id="SLRjv61vng9qwee1FFyH-10" value="CStorageUserHandle" style="html=1;" vertex="1" parent="SLRjv61vng9qwee1FFyH-20">
          <mxGeometry x="180" y="120" width="134" height="50" as="geometry" />
        </mxCell>
        <mxCell id="SLRjv61vng9qwee1FFyH-11" value="" style="endArrow=block;dashed=1;endFill=0;endSize=12;html=1;exitX=0.5;exitY=0;exitDx=0;exitDy=0;entryX=0.25;entryY=1;entryDx=0;entryDy=0;" edge="1" parent="SLRjv61vng9qwee1FFyH-20" source="SLRjv61vng9qwee1FFyH-9" target="SLRjv61vng9qwee1FFyH-8">
          <mxGeometry width="160" as="geometry">
            <mxPoint x="46" y="30" as="sourcePoint" />
            <mxPoint x="206" y="30" as="targetPoint" />
          </mxGeometry>
        </mxCell>
        <mxCell id="SLRjv61vng9qwee1FFyH-12" value="" style="endArrow=block;dashed=1;endFill=0;endSize=12;html=1;exitX=0.5;exitY=0;exitDx=0;exitDy=0;entryX=0.75;entryY=1;entryDx=0;entryDy=0;" edge="1" parent="SLRjv61vng9qwee1FFyH-20" source="SLRjv61vng9qwee1FFyH-10" target="SLRjv61vng9qwee1FFyH-8">
          <mxGeometry width="160" as="geometry">
            <mxPoint x="65" y="130" as="sourcePoint" />
            <mxPoint x="113.5" y="60" as="targetPoint" />
          </mxGeometry>
        </mxCell>
        <mxCell id="SLRjv61vng9qwee1FFyH-21" value="" style="endArrow=open;endSize=12;dashed=1;html=1;exitX=1;exitY=0.5;exitDx=0;exitDy=0;entryX=0;entryY=0.5;entryDx=0;entryDy=0;" edge="1" parent="1" source="SLRjv61vng9qwee1FFyH-1" target="SLRjv61vng9qwee1FFyH-8">
          <mxGeometry width="160" relative="1" as="geometry">
            <mxPoint x="470" y="520" as="sourcePoint" />
            <mxPoint x="630" y="520" as="targetPoint" />
            <Array as="points" />
          </mxGeometry>
        </mxCell>
        <mxCell id="SLRjv61vng9qwee1FFyH-22" value="" style="endArrow=open;endSize=12;dashed=1;html=1;exitX=1;exitY=0.5;exitDx=0;exitDy=0;entryX=0;entryY=0.5;entryDx=0;entryDy=0;" edge="1" parent="1" source="SLRjv61vng9qwee1FFyH-8" target="SLRjv61vng9qwee1FFyH-15">
          <mxGeometry width="160" relative="1" as="geometry">
            <mxPoint x="246" y="285" as="sourcePoint" />
            <mxPoint x="490" y="285" as="targetPoint" />
            <Array as="points" />
          </mxGeometry>
        </mxCell>
        <mxCell id="SLRjv61vng9qwee1FFyH-27" value="&lt;b&gt;CStorageInfo* GET_STORAGE_INFO(..&lt;/b&gt;) 생성" style="text;html=1;align=center;verticalAlign=middle;resizable=0;points=[];autosize=1;strokeColor=none;" vertex="1" parent="1">
          <mxGeometry x="10" y="170" width="260" height="20" as="geometry" />
        </mxCell>
        <mxCell id="SLRjv61vng9qwee1FFyH-24" value="" style="endArrow=none;dashed=1;html=1;dashPattern=1 3;strokeWidth=2;" edge="1" parent="1">
          <mxGeometry width="50" height="50" relative="1" as="geometry">
            <mxPoint x="140" y="260" as="sourcePoint" />
            <mxPoint x="150" y="190" as="targetPoint" />
          </mxGeometry>
        </mxCell>
      </root>
    </mxGraphModel>
  </diagram>
</mxfile>
